<svg width="20" height="21" viewBox="0 0 20 21" fill="none" xmlns="http://www.w3.org/2000/svg">
<path d="M15 6.8724H16.6667C16.8877 6.8724 17.0996 6.96019 17.2559 7.11647C17.4122 7.27275 17.5 7.48472 17.5 7.70573V17.7057C17.5 17.9267 17.4122 18.1387 17.2559 18.295C17.0996 18.4513 16.8877 18.5391 16.6667 18.5391H3.33333C3.11232 18.5391 2.90036 18.4513 2.74408 18.295C2.5878 18.1387 2.5 17.9267 2.5 17.7057V7.70573C2.5 7.48472 2.5878 7.27275 2.74408 7.11647C2.90036 6.96019 3.11232 6.8724 3.33333 6.8724H5V6.03906C5 4.71298 5.52678 3.44121 6.46447 2.50353C7.40215 1.56585 8.67392 1.03906 10 1.03906C11.3261 1.03906 12.5979 1.56585 13.5355 2.50353C14.4732 3.44121 15 4.71298 15 6.03906V6.8724ZM4.16667 8.53906V16.8724H15.8333V8.53906H4.16667ZM9.16667 11.8724H10.8333V13.5391H9.16667V11.8724ZM5.83333 11.8724H7.5V13.5391H5.83333V11.8724ZM12.5 11.8724H14.1667V13.5391H12.5V11.8724ZM13.3333 6.8724V6.03906C13.3333 5.15501 12.9821 4.30716 12.357 3.68204C11.7319 3.05692 10.8841 2.70573 10 2.70573C9.11594 2.70573 8.2681 3.05692 7.64298 3.68204C7.01786 4.30716 6.66667 5.15501 6.66667 6.03906V6.8724H13.3333Z" fill="#2F2B43" fill-opacity="0.6"/>
</svg>
