<svg width="20" height="21" viewBox="0 0 20 21" fill="none" xmlns="http://www.w3.org/2000/svg">
<path d="M0.984131 10.2056C1.76746 5.9389 5.50663 2.70557 9.99996 2.70557C14.4933 2.70557 18.2316 5.9389 19.0158 10.2056C18.2325 14.4722 14.4933 17.7056 9.99996 17.7056C5.50663 17.7056 1.7683 14.4722 0.984131 10.2056ZM9.99996 14.3722C11.105 14.3722 12.1648 13.9332 12.9462 13.1518C13.7276 12.3704 14.1666 11.3106 14.1666 10.2056C14.1666 9.1005 13.7276 8.04069 12.9462 7.25929C12.1648 6.47789 11.105 6.0389 9.99996 6.0389C8.8949 6.0389 7.83509 6.47789 7.05369 7.25929C6.27228 8.04069 5.8333 9.1005 5.8333 10.2056C5.8333 11.3106 6.27228 12.3704 7.05369 13.1518C7.83509 13.9332 8.8949 14.3722 9.99996 14.3722ZM9.99996 12.7056C9.33692 12.7056 8.70104 12.4422 8.2322 11.9733C7.76336 11.5045 7.49996 10.8686 7.49996 10.2056C7.49996 9.54252 7.76336 8.90664 8.2322 8.4378C8.70104 7.96896 9.33692 7.70557 9.99996 7.70557C10.663 7.70557 11.2989 7.96896 11.7677 8.4378C12.2366 8.90664 12.5 9.54252 12.5 10.2056C12.5 10.8686 12.2366 11.5045 11.7677 11.9733C11.2989 12.4422 10.663 12.7056 9.99996 12.7056Z" fill="#2F2B43" fill-opacity="0.6"/>
</svg>
