<svg width="127" height="24" viewBox="0 0 127 24" xmlns="http://www.w3.org/2000/svg">
    <g fill-rule="nonzero" fill="none">
        <rect fill="#00B67A" width="23.813" height="24" rx="4"/>
        <rect fill="#00B67A" x="25.797" width="23.813" height="24" rx="4"/>
        <rect fill="#00B67A" x="51.594" width="23.813" height="24" rx="4"/>
        <rect fill="#00B67A" x="77.391" width="23.813" height="24" rx="4"/>
        <rect fill="#00B67A" x="103.188" width="23.813" height="24" rx="4"/>
        <path d="m11.906 16.175 3.622-.925 1.513 4.7-5.135-3.775zm8.335-6.075h-6.375l-1.96-6.05-1.96 6.05H3.573l5.16 3.75-1.96 6.05 5.16-3.75 3.174-2.3 5.135-3.75zM37.703 16.175l3.622-.925 1.513 4.7-5.135-3.775zm8.334-6.075h-6.374l-1.96-6.05-1.96 6.05H29.37l5.16 3.75-1.96 6.05 5.159-3.75 3.175-2.3 5.135-3.75zM63.5 16.175l3.621-.925 1.514 4.7-5.135-3.775zm8.334-6.075H65.46L63.5 4.05l-1.96 6.05h-6.374l5.159 3.75-1.96 6.05 5.16-3.75 3.175-2.3 5.134-3.75zM89.297 16.175l3.621-.925 1.513 4.7-5.134-3.775zM97.63 10.1h-6.375l-1.96-6.05-1.959 6.05h-6.374l5.159 3.75-1.96 6.05 5.16-3.75 3.175-2.3 5.134-3.75zM115.094 16.175l3.621-.925 1.513 4.7-5.134-3.775zm8.334-6.075h-6.375l-1.96-6.05-1.959 6.05h-6.375l5.16 3.75-1.96 6.05 5.16-3.75 3.175-2.3 5.134-3.75z" fill="#FFF"/>
    </g>
</svg>
