<svg width="106" height="24" viewBox="0 0 106 24" xmlns="http://www.w3.org/2000/svg">
    <g fill-rule="nonzero" fill="none">
        <path d="M27.852 5.937h10.73v1.99h-4.219V19.12h-2.32V7.928h-4.2v-1.99h.009zm10.272 3.637h1.984v1.842h.037a2.16 2.16 0 0 1 .365-.753c.178-.242.393-.475.646-.67.252-.205.533-.363.842-.493.308-.12.627-.186.945-.186.243 0 .42.01.514.019.094.009.187.027.29.037v2.028a6.79 6.79 0 0 0-.458-.065 3.908 3.908 0 0 0-.459-.028c-.355 0-.692.074-1.01.214-.318.14-.59.353-.823.623a3.16 3.16 0 0 0-.562 1.023c-.14.41-.206.875-.206 1.405v4.54h-2.114V9.573h.01zm15.344 9.545H51.39v-1.33h-.038a2.876 2.876 0 0 1-1.16 1.153c-.514.288-1.038.437-1.571.437-1.263 0-2.18-.307-2.742-.93-.561-.623-.842-1.563-.842-2.819V9.574h2.115v5.852c0 .837.159 1.432.486 1.776.318.345.777.521 1.357.521.449 0 .814-.065 1.113-.204.3-.14.543-.317.72-.55.188-.222.319-.502.403-.818a4.01 4.01 0 0 0 .121-1.032V9.584h2.115v9.535zm3.602-3.06c.065.613.3 1.041.701 1.292.412.242.899.372 1.47.372.196 0 .42-.018.673-.046.252-.028.496-.093.71-.177.225-.084.403-.214.553-.381.14-.168.206-.382.196-.652a.897.897 0 0 0-.299-.66c-.187-.177-.421-.307-.711-.419a7.17 7.17 0 0 0-.992-.27c-.374-.074-.748-.158-1.132-.241a10.793 10.793 0 0 1-1.141-.317 3.492 3.492 0 0 1-.983-.502 2.213 2.213 0 0 1-.692-.8c-.178-.325-.262-.725-.262-1.21 0-.52.131-.948.384-1.301.252-.354.58-.633.963-.847a4.483 4.483 0 0 1 1.3-.456c.478-.084.936-.13 1.367-.13.496 0 .973.056 1.422.158.449.102.86.27 1.225.512.365.232.665.54.908.911.243.372.393.828.458 1.358H60.98c-.103-.502-.327-.846-.692-1.013-.365-.177-.786-.26-1.254-.26-.15 0-.327.008-.533.036a2.933 2.933 0 0 0-.58.14 1.258 1.258 0 0 0-.458.297.717.717 0 0 0-.187.512c0 .26.093.465.27.623.179.159.413.289.703.4.29.103.617.196.991.27.374.075.758.158 1.151.242.384.084.758.195 1.132.316.374.121.702.289.992.503.29.214.524.474.701.79.178.317.272.717.272 1.182 0 .567-.131 1.042-.393 1.442-.262.39-.599.716-1.01.958-.412.242-.88.428-1.385.54a6.986 6.986 0 0 1-1.507.167c-.608 0-1.169-.065-1.684-.205a4.11 4.11 0 0 1-1.337-.614 3.05 3.05 0 0 1-.89-1.032c-.214-.41-.327-.903-.345-1.47h2.133v-.019zm6.98-6.485h1.599V6.71h2.114v2.865h1.909v1.573h-1.909v5.097c0 .223.01.41.028.577.02.158.066.298.131.41a.6.6 0 0 0 .31.25c.14.056.317.084.56.084.15 0 .3 0 .45-.01.15-.008.299-.027.449-.064v1.628c-.234.028-.468.046-.683.074a5.5 5.5 0 0 1-.683.037c-.562 0-1.01-.056-1.348-.158-.336-.102-.608-.26-.795-.465-.196-.205-.318-.456-.393-.763a5.704 5.704 0 0 1-.121-1.051v-5.628h-1.6v-1.59h-.019zm7.119 0h2.002v1.293h.037c.3-.558.711-.948 1.245-1.19a4.12 4.12 0 0 1 1.73-.363c.758 0 1.413.13 1.974.4.562.26 1.03.623 1.404 1.088.374.465.645 1.005.832 1.619.188.614.281 1.274.281 1.972 0 .642-.084 1.265-.252 1.86a4.967 4.967 0 0 1-.758 1.6 3.714 3.714 0 0 1-1.291 1.107c-.524.28-1.132.42-1.843.42-.31 0-.618-.029-.927-.085a4.094 4.094 0 0 1-.888-.27c-.281-.12-.552-.278-.786-.474a2.953 2.953 0 0 1-.608-.67h-.038v4.763H71.17V9.574zm7.39 4.782c0-.428-.055-.847-.168-1.256a3.378 3.378 0 0 0-.505-1.08 2.569 2.569 0 0 0-.833-.753 2.345 2.345 0 0 0-1.15-.288c-.89 0-1.563.307-2.012.921-.449.614-.673 1.433-.673 2.456 0 .484.056.93.177 1.34.122.409.29.762.534 1.06.234.297.514.53.842.697.327.177.71.261 1.141.261.487 0 .889-.102 1.226-.298.336-.195.608-.456.823-.763a3.16 3.16 0 0 0 .468-1.07c.084-.4.13-.809.13-1.227zm3.734-8.419h2.114v1.99h-2.114v-1.99zm0 3.637h2.114v9.545h-2.114V9.574zm4.004-3.637h2.114V19.12h-2.114V5.937zm8.598 13.442c-.767 0-1.45-.13-2.05-.381a4.525 4.525 0 0 1-1.524-1.042 4.531 4.531 0 0 1-.945-1.59 6.108 6.108 0 0 1-.327-2.029c0-.725.112-1.395.327-2.01a4.531 4.531 0 0 1 .945-1.59 4.31 4.31 0 0 1 1.525-1.042c.599-.25 1.282-.381 2.049-.381.767 0 1.45.13 2.049.381a4.525 4.525 0 0 1 1.525 1.042c.411.447.73.977.945 1.59.215.615.327 1.285.327 2.01 0 .735-.112 1.414-.327 2.028a4.531 4.531 0 0 1-.945 1.59 4.31 4.31 0 0 1-1.525 1.043c-.6.25-1.282.381-2.05.381zm0-1.665c.468 0 .88-.102 1.225-.298.347-.195.627-.456.852-.772.224-.316.383-.679.496-1.079.103-.4.159-.81.159-1.228 0-.41-.056-.81-.16-1.218a3.174 3.174 0 0 0-.495-1.08 2.576 2.576 0 0 0-.852-.762 2.463 2.463 0 0 0-1.225-.298c-.468 0-.88.102-1.226.298a2.682 2.682 0 0 0-.851.763c-.225.316-.384.67-.496 1.079-.103.409-.16.809-.16 1.218 0 .419.057.828.16 1.228.103.4.271.763.496 1.08.224.315.505.576.851.771.346.205.758.298 1.226.298zm5.464-8.14h1.6V6.71h2.114v2.865h1.908v1.573h-1.908v5.097c0 .223.01.41.028.577.019.158.065.298.13.41a.6.6 0 0 0 .31.25c.14.056.318.084.56.084.15 0 .3 0 .45-.01.15-.008.3-.027.449-.064v1.628c-.234.028-.468.046-.683.074a5.5 5.5 0 0 1-.683.037c-.561 0-1.01-.056-1.347-.158-.337-.102-.608-.26-.795-.465-.197-.205-.318-.456-.393-.763a5.704 5.704 0 0 1-.122-1.051v-5.628h-1.6v-1.59h-.018z" fill="#1A1B26"/>
        <path fill="#00B67A" d="M25.382 9.172h-9.693L12.696 0 9.692 9.172 0 9.162l7.85 5.675L4.845 24l7.85-5.665L20.536 24l-2.994-9.163z"/>
        <path fill="#005128" d="m18.216 16.912-.674-2.075-4.846 3.498z"/>
    </g>
</svg>
